# Vectary OBJ Export units=mm
mtllib Project Name.mtl 
o 000_
g Layer_1
usemtl Default material_0
v 70.000 -100.000 20.000
v 100.000 -20.000 20.000
v 0.000 40.000 20.000
v -100.000 -20.000 20.000
v -70.000 -100.000 20.000
v -60.000 -100.000 20.000
v -70.000 -40.000 20.000
v 0.000 -10.000 20.000
v 70.000 -40.000 20.000
v 60.000 -100.000 20.000
v 70.000 -100.000 -20.000
v 100.000 -20.000 -20.000
v 0.000 40.000 -20.000
v -100.000 -20.000 -20.000
v -70.000 -100.000 -20.000
v -60.000 -100.000 -20.000
v -70.000 -40.000 -20.000
v 0.000 -10.000 -20.000
v 70.000 -40.000 -20.000
v 60.000 -100.000 -20.000
vn -0.000 -0.000 1.000
vn 0.936 -0.351 0.000
vn 0.000 -1.000 -0.000
vn -0.000 -0.000 1.000
vn 0.936 -0.351 0.000
vn 0.514 0.857 0.000
vn -0.000 -0.000 1.000
vn 0.514 0.857 0.000
vn -0.514 0.857 0.000
vn -0.000 -0.000 1.000
vn -0.514 0.857 0.000
vn -0.936 -0.351 -0.000
vn -0.000 -0.000 1.000
vn -0.936 -0.351 -0.000
vn -0.000 -1.000 -0.000
vn -0.000 -0.000 1.000
vn -0.000 -1.000 -0.000
vn 0.986 0.164 0.000
vn -0.000 -0.000 1.000
vn 0.986 0.164 0.000
vn 0.394 -0.919 -0.000
vn -0.000 -0.000 1.000
vn 0.394 -0.919 -0.000
vn -0.394 -0.919 -0.000
vn -0.000 -0.000 1.000
vn -0.394 -0.919 -0.000
vn -0.986 0.164 -0.000
vn -0.000 -0.000 1.000
vn -0.986 0.164 -0.000
vn 0.000 -1.000 -0.000
vn 0.936 -0.351 0.000
vn 0.000 -1.000 -0.000
vn 0.936 -0.351 0.000
vn 0.514 0.857 0.000
vn 0.514 0.857 0.000
vn -0.514 0.857 0.000
vn -0.514 0.857 0.000
vn -0.936 -0.351 -0.000
vn -0.936 -0.351 -0.000
vn -0.000 -1.000 -0.000
vn -0.000 -1.000 -0.000
vn 0.986 0.164 0.000
vn 0.986 0.164 0.000
vn 0.394 -0.919 -0.000
vn 0.394 -0.919 -0.000
vn -0.394 -0.919 -0.000
vn -0.394 -0.919 -0.000
vn -0.986 0.164 -0.000
vn -0.986 0.164 -0.000
vn 0.000 -1.000 -0.000
f 1//1 2//4 3//7 4//10 5//13 6//16 7//19 8//22 9//25 10//28 
f 11//31 12//33 2//5 1//2 
f 12//34 13//35 3//8 2//6 
f 13//36 14//37 4//11 3//9 
f 14//38 15//39 5//14 4//12 
f 15//40 16//41 6//17 5//15 
f 16//42 17//43 7//20 6//18 
f 17//44 18//45 8//23 7//21 
f 18//46 19//47 9//26 8//24 
f 19//48 20//49 10//29 9//27 
f 20//50 11//32 1//3 10//30 
